<svg xmlns="http://www.w3.org/2000/svg" viewBox="0 0 512 512">
  <rect width="512" height="512" rx="110" fill="#0A0515"/>
  <defs>
    <linearGradient id="grad" x1="0%" y1="0%" x2="100%" y2="100%">
      <stop offset="0%" stop-color="#3b82f6" />
      <stop offset="100%" stop-color="#8b5cf6" />
    </linearGradient>
    <filter id="glow" x="-20%" y="-20%" width="140%" height="140%">
      <feGaussianBlur stdDeviation="18" result="blur" />
      <feMerge>
        <feMergeNode in="blur" />
        <feMergeNode in="SourceGraphic" />
      </feMerge>
    </filter>
  </defs>
  <path d="M 180 130 
           L 390 130
           A 10 10 0 0 1 400 145
           L 360 210
           L 230 210
           L 230 250
           L 340 250
           A 10 10 0 0 1 350 265
           L 310 320
           L 230 320
           L 230 370
           L 370 370
           A 10 10 0 0 1 375 385
           L 330 440
           L 180 440
           C 120 440 100 420 100 360
           L 100 210
           C 100 150 120 130 180 130 Z" fill="url(#grad)" filter="url(#glow)"/>
</svg>
